<svg width="1418" height="1418" viewBox="0 0 1418 1418" fill="none" xmlns="http://www.w3.org/2000/svg">
<circle cx="709" cy="709" r="612" fill="#0D0D0D"/>
<path d="M523.14 535.286C561.14 535.286 593.973 542.453 621.64 556.786C649.64 570.786 670.973 590.953 685.64 617.286C700.64 643.62 708.14 674.62 708.14 710.286C708.14 745.953 700.64 776.953 685.64 803.286C670.973 829.286 649.64 849.286 621.64 863.286C593.973 876.953 561.14 883.786 523.14 883.786H414.64V535.286H523.14ZM523.14 846.286C568.14 846.286 602.473 834.453 626.14 810.786C649.806 786.786 661.64 753.286 661.64 710.286C661.64 666.953 649.64 633.12 625.64 608.786C601.973 584.453 567.806 572.286 523.14 572.286H460.14V846.286H523.14Z" fill="#F2F0CE"/>
<path d="M1003.86 536.714V884.214H946.86V732.214H783.36V884.214H726.36V536.714H783.36V685.714H946.86V536.714H1003.86Z" fill="#8BA91E"/>
</svg>
